<svg xmlns="http://www.w3.org/2000/svg" version="1.1" xmlnsXlink="http://www.w3.org/1999/xlink" xmlnsSvgjs="http://svgjs.dev/svgjs" viewBox="0 0 800 800"><defs><linearGradient x1="50%" y1="0%" x2="50%" y2="100%" id="ssspill-grad"><stop stop-color="hsla(164, 12%, 54%, 0.2)" stop-opacity="1" offset="45%"></stop><stop stop-color="hsla(164, 12%, 54%, 0.1)" stop-opacity="1" offset="100%"></stop></linearGradient><filter id="ssspot-filter" x="-20%" y="-20%" width="140%" height="140%" filterUnits="objectBoundingBox" primitiveUnits="userSpaceOnUse" color-interpolation-filters="sRGB">
	<feTurbulence type="turbulence" baseFrequency="0.022 0.218" numOctaves="2" seed="55" stitchTiles="stitch" x="0%" y="0%" width="100%" height="100%" result="turbulence"></feTurbulence>
	<feGaussianBlur stdDeviation="0 3" x="0%" y="0%" width="100%" height="100%" in="turbulence" edgeMode="duplicate" result="blur"></feGaussianBlur>
	<feDisplacementMap in="SourceGraphic" in2="blur" scale="32" xChannelSelector="R" yChannelSelector="B" x="0%" y="0%" width="100%" height="100%" result="displacementMap"></feDisplacementMap>
</filter></defs><rect width="100%" height="100%" fill="hsla(189, 18%, 31%, 1.0)"></rect><g fill="url(#ssspill-grad)" filter="url(#ssspot-filter)"><circle r="5.790274871138233" cx="408.0002596556412" cy="105.179166679232" opacity="0.738566245115767"></circle><circle r="3.4329848103014937" cx="109.00926268207559" cy="498.00171317077326" opacity="0.2947615420206774"></circle><circle r="5.819533779648824" cx="712.5686533492914" cy="704.177330369885" opacity="0.5679803148434829"></circle><circle r="4.110627055771029" cx="135.16942321408905" cy="530.9649818691666" opacity="0.9679102758828736"></circle><circle r="4.127872919142085" cx="526.3942667165587" cy="756.4853243267814" opacity="0.23091225243905208"></circle><circle r="7.177692438703083" cx="342.5221173295857" cy="295.2774444456307" opacity="0.9382455979318969"></circle><circle r="3.943133534509025" cx="590.9989946690304" cy="583.9249989238284" opacity="0.7165362938477239"></circle><circle r="5.48752882317391" cx="444.27969281759624" cy="701.1658276695255" opacity="0.6630062002948174"></circle><circle r="8.278130657528209" cx="569.3117193751249" cy="84.59337514641408" opacity="0.4897790538777862"></circle><circle r="8.57806354433617" cx="422.58683597192726" cy="315.2943513278479" opacity="0.3704269858985598"></circle><circle r="7.760886509673329" cx="435.70960202556324" cy="400.5263670405834" opacity="0.9391579080642186"></circle><circle r="7.036773797920182" cx="480.03252095426956" cy="753.0373059904621" opacity="0.5078739474314803"></circle><circle r="5.8293385709026655" cx="786.9362444031375" cy="471.30352741199454" opacity="0.8504356562039509"></circle><circle r="6.030336833771294" cx="101.1003555689773" cy="443.39075704718454" opacity="0.8573285018796187"></circle><circle r="3.016831292830231" cx="6.839474138910076" cy="22.500175796888442" opacity="0.4417909146705523"></circle><circle r="4.85158424610727" cx="339.5048463857615" cy="244.0312622642365" opacity="0.3581237876595248"></circle><circle r="5.010959551328427" cx="519.8764081308062" cy="541.034913107383" opacity="0.6635218559558093"></circle><circle r="4.471968357307952" cx="782.4279310765502" cy="211.62608782579727" opacity="0.7785445480981028"></circle><circle r="6.10947755248454" cx="104.80664655983013" cy="728.3960343271317" opacity="0.13334370318886798"></circle><circle r="6.574223000359614" cx="655.9631900748718" cy="449.21278652685925" opacity="0.5208897736279802"></circle><circle r="5.649616894011422" cx="189.35338625324346" cy="131.94906818578042" opacity="0.5320991741450689"></circle><circle r="5.760780837913313" cx="614.1732811645871" cy="528.6193229471" opacity="0.11443550880783888"></circle><circle r="3.9194933196622674" cx="632.8091084854519" cy="126.54428997002948" opacity="0.1623162298597309"></circle><circle r="6.505478365966866" cx="270.02903140117405" cy="434.6055289455004" opacity="0.40608422532761224"></circle><circle r="3.8213848414293414" cx="98.52409723909847" cy="253.2423092624089" opacity="0.9510292275257026"></circle><circle r="4.77402719217444" cx="382.50072210766615" cy="76.92373004852291" opacity="0.7306870421370357"></circle><circle r="3.4081842536680096" cx="250.94015957085273" cy="746.5754800197874" opacity="0.7756637392252697"></circle><circle r="5.974188430593066" cx="417.7353166387638" cy="271.7468251331031" opacity="0.62836261552934"></circle><circle r="7.9803010387575055" cx="272.3382416369678" cy="138.9649318342613" opacity="0.294575537114554"></circle><circle r="3.661445764005975" cx="643.8907965438349" cy="329.05023485000584" opacity="0.8939263245168882"></circle><circle r="5.8437902852150385" cx="659.7915491262994" cy="506.9419546023577" opacity="0.5686626263854413"></circle><circle r="3.8827078683176426" cx="546.137912516375" cy="409.55107484628246" opacity="0.5476611365276504"></circle><circle r="3.180854195309955" cx="482.33562180840585" cy="166.4358371128001" opacity="0.8101852619668085"></circle><circle r="5.762891530661116" cx="711.0019451213894" cy="73.4891478460405" opacity="0.6938612691519163"></circle><circle r="6.290698200106505" cx="14.227254773201516" cy="700.0730626246099" opacity="0.37862097385869464"></circle><circle r="8.026904562740704" cx="49.88346774387225" cy="165.45192242990288" opacity="0.8215219799963303"></circle><circle r="3.959059077086829" cx="722.4072082385103" cy="563.1598364036402" opacity="0.7831873416149837"></circle><circle r="5.817594364013935" cx="59.78711777230226" cy="299.23834053832996" opacity="0.9016230831682265"></circle><circle r="7.947142236573791" cx="253.55666615596724" cy="86.14574123769133" opacity="0.9182089646615871"></circle><circle r="4.329808601404123" cx="381.519406895695" cy="416.721769993872" opacity="0.5662919574484883"></circle><circle r="3.884975037996997" cx="642.288303012086" cy="608.515077128789" opacity="0.42049654660118174"></circle><circle r="2.7151935272316687" cx="790.6389586889597" cy="762.2440294651894" opacity="0.7760475412477866"></circle><circle r="6.783410597541632" cx="73.71658723235697" cy="140.86640515861131" opacity="0.5167029490574582"></circle><circle r="8.106731437842127" cx="696.8084160788145" cy="105.60702555962334" opacity="0.7570819755180679"></circle><circle r="5.674961815480222" cx="706.3145260357277" cy="418.3984259611772" opacity="0.2027544610385929"></circle><circle r="7.511037167389048" cx="597.8702744441982" cy="382.13153657617784" opacity="0.21149428445795013"></circle><circle r="3.9024128100362847" cx="469.248943442087" cy="116.3791021827542" opacity="0.7217577208412922"></circle><circle r="4.994451246078085" cx="727.8424272285218" cy="169.1565162744676" opacity="0.8938480618783432"></circle><circle r="3.6808703653926247" cx="315.2148058103048" cy="360.4679661326317" opacity="0.23086030925146925"></circle><circle r="5.5110492126749175" cx="704.9462695322443" cy="502.692573504666" opacity="0.33119702694279435"></circle><circle r="5.074827322996696" cx="319.63395904399465" cy="781.7766714606544" opacity="0.7150866217102566"></circle><circle r="4.134530432366806" cx="466.6700406454435" cy="416.0637840748543" opacity="0.9509662045571791"></circle><circle r="6.297137851294431" cx="739.9084315015673" cy="499.4640228802878" opacity="0.25665702605501334"></circle><circle r="5.705347181012762" cx="96.78901085630352" cy="365.58185116379275" opacity="0.2528687483973345"></circle><circle r="4.5229910827496855" cx="702.0518756200305" cy="528.9236212092087" opacity="0.14070146626535657"></circle><circle r="5.663919869650721" cx="363.11525837867845" cy="150.4943880952744" opacity="0.8160158785546072"></circle><circle r="7.501646065013122" cx="668.6098409426478" cy="252.50423385370107" opacity="0.572120098271847"></circle><circle r="5.171553850017391" cx="595.0953732936623" cy="784.0332494817914" opacity="0.3184460705678905"></circle><circle r="4.878568870880371" cx="467.078156717467" cy="144.3421323080707" opacity="0.14947175811408497"></circle><circle r="3.5454951906770713" cx="12.75489916451335" cy="448.688586413374" opacity="0.3782223041306648"></circle><circle r="4.620355653533539" cx="425.73797496881735" cy="759.746035899741" opacity="0.5471656814143845"></circle><circle r="5.37736898680569" cx="33.44734842441303" cy="321.3579378716669" opacity="0.7833059989750554"></circle><circle r="10.424186842426074" cx="571.3205026591202" cy="267.98559737084895" opacity="0.29528922827387993"></circle><circle r="7.020445887053017" cx="784.4244348478835" cy="105.68756429426448" opacity="0.7178153356431829"></circle><circle r="4.615760180748939" cx="510.22963273540404" cy="601.0036721871626" opacity="0.10411877550569267"></circle><circle r="2.711939324627876" cx="312.630896100562" cy="237.95755253227256" opacity="0.2590788481582525"></circle><circle r="5.284973044486809" cx="462.5173447754027" cy="783.9560025215393" opacity="0.4531942181740576"></circle><circle r="11.177637605251808" cx="23.354066915204317" cy="516.3129667907517" opacity="0.616047951107001"></circle><circle r="7.0379137672317515" cx="155.65853753636966" cy="601.3017318043837" opacity="0.8348552980131656"></circle><circle r="6.209835385852964" cx="728.4607138743836" cy="528.8677043798451" opacity="0.5408801593128458"></circle><circle r="5.055298573436312" cx="393.53441784155063" cy="355.48198440620973" opacity="0.9103706364067435"></circle><circle r="3.8080723809322006" cx="38.77807877041638" cy="41.927125398037276" opacity="0.8761595144259997"></circle><circle r="3.2186439733736796" cx="788.740125823799" cy="712.8767619301799" opacity="0.5260508714024554"></circle><circle r="6.956576513419028" cx="332.0083321332025" cy="383.65362722885226" opacity="0.7468304183775715"></circle><circle r="5.716328975596513" cx="190.3584052605159" cy="555.2600638163539" opacity="0.827221577772353"></circle><circle r="4.166328050108754" cx="178.39994633088924" cy="528.6932597052408" opacity="0.6246490129772496"></circle><circle r="3.890196188734606" cx="434.2107861132486" cy="725.7548780005733" opacity="0.9545844482239765"></circle><circle r="7.331039177718862" cx="403.6564812071365" cy="460.5505884455607" opacity="0.6752919535246521"></circle><circle r="10.166573281359131" cx="580.1372006718292" cy="219.02667919224413" opacity="0.6938239376237815"></circle><circle r="8.353755563008933" cx="183.5170392723258" cy="181.38194608807834" opacity="0.5872389365618164"></circle><circle r="4.1810040618968305" cx="646.5697503575817" cy="28.953659829612313" opacity="0.8665965726863754"></circle><circle r="4.5194732144715655" cx="766.0092621185953" cy="761.482490743443" opacity="0.3147868206431055"></circle><circle r="6.499490833512759" cx="733.6201942387054" cy="50.344236831767496" opacity="0.2218153267693702"></circle><circle r="6.651938599304534" cx="302.16942230244103" cy="406.60101251507757" opacity="0.9533892058748176"></circle><circle r="3.508027941427722" cx="44.35631464279877" cy="711.4843549435482" opacity="0.38509993862032843"></circle><circle r="4.350435118031461" cx="136.7165182081438" cy="262.23195059838935" opacity="0.7406144276053395"></circle><circle r="7.418210201886594" cx="708.7393546777955" cy="617.5262701110665" opacity="0.973380645802429"></circle><circle r="6.391354166592743" cx="456.29898003518826" cy="662.3081789200602" opacity="0.34912644667755205"></circle><circle r="6.04175580446908" cx="509.2132113474495" cy="457.46920726571824" opacity="0.7262249563477217"></circle><circle r="5.469747432886234" cx="86.9653206013843" cy="322.6742093578219" opacity="0.9287920163076703"></circle><circle r="3.646198419687611" cx="75.78352667143761" cy="718.3275033599238" opacity="0.1602469357761628"></circle><circle r="6.250053859015056" cx="110.84931968575417" cy="610.8607722409217" opacity="0.9995788423088442"></circle><circle r="2.8014654716936898" cx="281.62668472398684" cy="755.9760325447043" opacity="0.9014591206275275"></circle><circle r="5.585477534888082" cx="151.36401820210338" cy="54.85982087038738" opacity="0.6646101217619127"></circle><circle r="6.586830052351207" cx="143.7608546513035" cy="174.9329179848134" opacity="0.7007285893018964"></circle><circle r="5.053264510708029" cx="214.61017389120883" cy="315.51722876827927" opacity="0.2464378060193943"></circle><circle r="4.51166692093164" cx="500.0938317383465" cy="88.64440715511115" opacity="0.6285276848053395"></circle><circle r="5.123645027788697" cx="741.2542220959247" cy="81.57460297033401" opacity="0.7544219320835667"></circle><circle r="3.0654780523583276" cx="10.24001790685241" cy="317.3477708683685" opacity="0.889390900303569"></circle><circle r="6.968162150366123" cx="287.3588312226736" cy="592.4985822764579" opacity="0.3084980789236904"></circle><circle r="3.4307287470401464" cx="320.6780294275907" cy="271.5283920299453" opacity="0.17213431657942507"></circle><circle r="4.06540485513657" cx="365.79090711345924" cy="676.0483112801564" opacity="0.9665687227246197"></circle><circle r="7.985583954991045" cx="76.6926028638595" cy="570.0951286074662" opacity="0.48432428321549703"></circle><circle r="5.080802594126315" cx="426.5901939605866" cy="633.7399322743273" opacity="0.7558082298055262"></circle><circle r="4.467810788140873" cx="607.7808805039635" cy="150.0827571884961" opacity="0.645359318701864"></circle><circle r="4.090934834828348" cx="77.409993307768" cy="237.1897013559088" opacity="0.9377181275553755"></circle><circle r="3.5494897446945632" cx="476.8861215399906" cy="543.6104305602666" opacity="0.6736162414080593"></circle><circle r="4.022502336336846" cx="749.0528667131755" cy="613.477866946474" opacity="0.8243771065396966"></circle><circle r="4.029731606362475" cx="668.948159544692" cy="553.4093689690702" opacity="0.9356029470832176"></circle><circle r="4.398293388767026" cx="337.59603692341994" cy="539.0279705426339" opacity="0.8758553674632183"></circle><circle r="4.613126505824797" cx="653.5242689218032" cy="622.6046557705457" opacity="0.4236102916127571"></circle><circle r="6.142815523956568" cx="471.9901962139824" cy="382.9571846572439" opacity="0.3604467636920816"></circle><circle r="5.849425737554391" cx="322.1028843621805" cy="12.74261312173335" opacity="0.2726174275230929"></circle><circle r="6.62009657528465" cx="245.52303445039402" cy="721.9628940570492" opacity="0.4226273752759112"></circle><circle r="5.090979470233685" cx="374.69409159480807" cy="487.284630005383" opacity="0.1528118863469028"></circle><circle r="6.606259596796276" cx="758.4601088788662" cy="728.0303393888975" opacity="0.9022316092274686"></circle><circle r="7.273978039594754" cx="494.6755761232793" cy="302.0125555107171" opacity="0.284575715649528"></circle><circle r="6.68541215505247" cx="717.2262741177731" cy="137.42123314067132" opacity="0.7969969358992975"></circle><circle r="4.321151469153099" cx="626.2459579705462" cy="677.094829258623" opacity="0.5990635169810865"></circle><circle r="5.835434071221954" cx="107.7407954755425" cy="581.674001664842" opacity="0.7896870250209754"></circle><circle r="6.851592252249996" cx="477.3584742218489" cy="488.7895457049597" opacity="0.504301959868349"></circle><circle r="5.089707755450351" cx="394.7998499537637" cy="522.5306543864072" opacity="0.3806369308960369"></circle><circle r="5.166068518696588" cx="418.8625183622655" cy="220.89829438018424" opacity="0.9349541023507085"></circle><circle r="5.336636475651023" cx="733.4296297651418" cy="688.2383738654548" opacity="0.5972962021455475"></circle><circle r="6.404177550295906" cx="193.06748709219917" cy="223.0857013978866" opacity="0.42643910036160115"></circle><circle r="4.635637742833033" cx="274.27055925790324" cy="242.48349764715087" opacity="0.9602408797081048"></circle><circle r="4.858015878716834" cx="567.5280921429804" cy="11.827815015425067" opacity="0.9262549820690799"></circle><circle r="5.605360572803922" cx="367.8663368872612" cy="375.7997415047203" opacity="0.49390893034138084"></circle><circle r="6.47824985920132" cx="480.4836762665182" cy="685.1512220928556" opacity="0.8820239680876466"></circle><circle r="6.904568904412129" cx="323.1413543930373" cy="427.5554466881618" opacity="0.6046264706855902"></circle><circle r="4.110503920294705" cx="21.25576709241835" cy="9.721294909244" opacity="0.2261130004754919"></circle><circle r="5.496998013511213" cx="135.9306396654404" cy="618.0049191040483" opacity="0.5308490794092786"></circle><circle r="2.98250316717574" cx="81.7956054886057" cy="10.742736678782903" opacity="0.9575493345356676"></circle><circle r="4.715203467004187" cx="419.9447440454469" cy="554.0840197121308" opacity="0.4797893295771086"></circle><circle r="4.823194040120293" cx="129.06410199848995" cy="783.8571117742782" opacity="0.3824220570309058"></circle><circle r="6.12291293570102" cx="351.67380324818384" cy="411.8145968696317" opacity="0.7931900498997182"></circle><circle r="5.49486217295515" cx="353.26962817576583" cy="336.0633422867647" opacity="0.6677629860444367"></circle><circle r="3.6573431379319246" cx="739.1104777577357" cy="633.9180339506362" opacity="0.20389350247043286"></circle><circle r="4.814472357700597" cx="127.1968805033182" cy="19.25183778132501" opacity="0.47561357800923587"></circle><circle r="5.8166860121685895" cx="686.467348186606" cy="318.7904267898487" opacity="0.11781857473693913"></circle><circle r="6.596101750742984" cx="550.5106682466142" cy="128.2679263918628" opacity="0.6364429943737941"></circle><circle r="3.872983356639066" cx="508.53864944628174" cy="166.46810115254576" opacity="0.42818962868279276"></circle><circle r="3.9196009703367674" cx="188.02592712336778" cy="649.2274534324558" opacity="0.1948141477628122"></circle><circle r="10.119302309852264" cx="248.76663802200719" cy="476.1084780279145" opacity="0.5849649920049673"></circle><circle r="7.89374904433018" cx="241.11372847624114" cy="518.6981272720288" opacity="0.7755780612843056"></circle><circle r="6.901112776867444" cx="647.3077676558632" cy="412.39990154183795" opacity="0.40206060988783154"></circle><circle r="3.3389050929189064" cx="686.2337903086476" cy="484.42908456528386" opacity="0.6330043131509879"></circle><circle r="5.565166961352047" cx="620.0371523042481" cy="761.8389318810482" opacity="0.40304392529134137"></circle><circle r="4.834046549550458" cx="46.10974137417982" cy="116.84632833380869" opacity="0.2739748811985755"></circle><circle r="5.3806079147035515" cx="501.9507389658835" cy="431.06885793521695" opacity="0.20598582460204445"></circle><circle r="6.975358064668086" cx="552.2475985066025" cy="618.4539271630571" opacity="0.6219564141415862"></circle><circle r="4.4319155197839" cx="74.83608907063574" cy="91.27891606810664" opacity="0.9359660942663026"></circle><circle r="7.705902819313428" cx="252.34213598793565" cy="560.7439036534482" opacity="0.24211808659758413"></circle><circle r="5.680102342965542" cx="734.3634682875538" cy="726.6613248380636" opacity="0.9727414117289934"></circle><circle r="5.914444212145778" cx="114.09007526475989" cy="63.89234223337226" opacity="0.8056404580138289"></circle><circle r="3.9873354719214285" cx="216.8371619526325" cy="574.6158417064986" opacity="0.22845061185061016"></circle><circle r="3.505915015398121" cx="665.5726711290905" cy="788.5532296061672" opacity="0.13585548672137526"></circle><circle r="3.555661730797082" cx="632.4275829090541" cy="9.08383760115219" opacity="0.6962738455751064"></circle><circle r="5.900244658294517" cx="376.27549592398896" cy="447.25959078134963" opacity="0.4868413089573882"></circle><circle r="3.552840986721654" cx="91.3079758409354" cy="114.52591366557793" opacity="0.8180445764952264"></circle><circle r="4.173090638661577" cx="274.4047708169401" cy="733.8543160692998" opacity="0.88955803361453"></circle><circle r="5.383135632972229" cx="785.5060585566666" cy="266.084708774898" opacity="0.2856300913923686"></circle><circle r="4.357125729371002" cx="95.30315522586824" cy="216.34991943724322" opacity="0.4092582782417967"></circle><circle r="7.571061573305714" cx="17.957996862634015" cy="280.79682037099985" opacity="0.6516199685631205"></circle><circle r="4.967688470292645" cx="25.948353919548417" cy="722.9266498931505" opacity="0.19936328821697175"></circle><circle r="5.1674702491357785" cx="688.5822837707166" cy="718.901658059587" opacity="0.962808324231614"></circle><circle r="7.448943090787906" cx="406.75242342407" cy="147.52082838491586" opacity="0.6246299534405816"></circle><circle r="7.157258516914028" cx="59.253542888494" cy="384.72642984432366" opacity="0.8552380635327829"></circle><circle r="7.188572563059772" cx="679.4540236171462" cy="15.716253733888188" opacity="0.7634214139815853"></circle><circle r="6.823649932316646" cx="160.64464492809915" cy="460.33450066069554" opacity="0.5245196456823714"></circle><circle r="5.395726588807348" cx="486.06658428559723" cy="127.9052509104869" opacity="0.6941944688364549"></circle><circle r="5.395937757261579" cx="204.02746815691432" cy="509.9217270914821" opacity="0.1883546471582473"></circle><circle r="4.902029800706363" cx="228.7711379394056" cy="696.9887019459147" opacity="0.27123466456971"></circle><circle r="6.966929615322443" cx="764.3274309779028" cy="335.09365156216967" opacity="0.901213346022915"></circle><circle r="3.1065854817649177" cx="245.0642203856188" cy="771.5912151096319" opacity="0.6272940237430894"></circle><circle r="4.179423566244716" cx="80.41073346624466" cy="689.0605759911376" opacity="0.4026361511394728"></circle><circle r="3.950867783926777" cx="109.0281279932462" cy="642.4212934263965" opacity="0.10612908740461002"></circle><circle r="4.1315650723841" cx="620.5510322941686" cy="413.9770551906511" opacity="0.2249169762669879"></circle><circle r="5.265095098920744" cx="260.7215781596184" cy="337.470055636294" opacity="0.15856060299985708"></circle><circle r="7.535206272745174" cx="247.77198205304683" cy="374.6280817793812" opacity="0.6813082192202853"></circle><circle r="5.932338037608304" cx="225.39512391242997" cy="282.56728894816126" opacity="0.11465797805841793"></circle><circle r="3.8616631920284616" cx="468.97183160842104" cy="14.929896862607205" opacity="0.14651826971609733"></circle><circle r="9.45316018104366" cx="475.41291159720254" cy="57.338231384339295" opacity="0.14076131188520505"></circle><circle r="5.378153466031597" cx="428.1016244917753" cy="178.96815159727214" opacity="0.9664170555560909"></circle><circle r="5.04309228779584" cx="21.374541860918225" cy="67.22861223121541" opacity="0.3073087520855522"></circle><circle r="6.614254285626114" cx="556.8623159864231" cy="571.3036802275047" opacity="0.9255741811788504"></circle><circle r="7.023858673724993" cx="663.903161117822" cy="668.2213692801727" opacity="0.7638268017772621"></circle><circle r="3.1897633100536606" cx="505.89995679458553" cy="145.44930034179228" opacity="0.9904322032425653"></circle><circle r="4.408696683933562" cx="311.1715212274941" cy="219.09373174217924" opacity="0.9672222886448368"></circle><circle r="3.8618648985013615" cx="472.076139896118" cy="208.5174668749317" opacity="0.8931456938386858"></circle><circle r="7.936484670049984" cx="556.2384588951389" cy="684.1234714204907" opacity="0.5651611263560048"></circle><circle r="4.401768130636844" cx="728.4138946914693" cy="374.4226494060706" opacity="0.9869273236426954"></circle><circle r="5.778466595464954" cx="265.19523273254777" cy="625.9973282200152" opacity="0.6935663759320218"></circle><circle r="6.929344429478501" cx="692.256254012153" cy="284.7598637905544" opacity="0.14164779228180305"></circle><circle r="4.460021782225778" cx="55.33158735327504" cy="760.825616032302" opacity="0.21206245612561142"></circle><circle r="3.8330710812539057" cx="230.23816457578923" cy="9.854580041110836" opacity="0.6604764645873498"></circle><circle r="4.966499008819513" cx="743.4232689009478" cy="471.6854279529968" opacity="0.4085169638669516"></circle><circle r="5.353245579066051" cx="587.0155829924527" cy="178.30438185510948" opacity="0.7718883496626217"></circle><circle r="8.247652890980643" cx="332.3261939671751" cy="486.47510161888795" opacity="0.30523826389605513"></circle><circle r="3.7646963438576777" cx="786.0582052221009" cy="368.07142806299015" opacity="0.9236529667404971"></circle><circle r="7.642588044107087" cx="133.5678500671267" cy="412.05551053221615" opacity="0.6606373932391659"></circle><circle r="6.139337553983607" cx="734.1840058908217" cy="657.8696954477016" opacity="0.7767562059045638"></circle><circle r="7.0557904490493595" cx="777.8300703016107" cy="149.27954846149441" opacity="0.4832866486309114"></circle><circle r="4.753978096462453" cx="641.3406839594852" cy="580.8963039749967" opacity="0.5942866781844771"></circle><circle r="5.040963769361711" cx="590.8333395379935" cy="421.03568809505254" opacity="0.44994740211851225"></circle><circle r="6.277029813658296" cx="380.90077307345746" cy="216.230900056494" opacity="0.3659895503927134"></circle><circle r="5.087665313386803" cx="390.90729792600075" cy="255.11472287599204" opacity="0.7893551818667404"></circle><circle r="8.004954344843863" cx="109.77100470258631" cy="294.2583448694365" opacity="0.4907019293495344"></circle><circle r="4.254959775267096" cx="542.0559979186587" cy="772.9661889830031" opacity="0.3878820612058207"></circle><circle r="4.61586723231113" cx="178.75748174373837" cy="580.8439270788266" opacity="0.25577361780145563"></circle><circle r="3.8494950502739966" cx="565.7078842374209" cy="771.7710865648097" opacity="0.2192114329706186"></circle><circle r="4.668911152451348" cx="159.70832198904196" cy="514.2689119825181" opacity="0.9439373324895814"></circle><circle r="3.795487136079986" cx="771.3545375652269" cy="614.3016290947404" opacity="0.31515583801325814"></circle><circle r="5.68711119326923" cx="127.88756730112294" cy="565.154422726476" opacity="0.8050572494538563"></circle><circle r="4.974771516077542" cx="277.9140356354967" cy="702.5617640307554" opacity="0.2793307388561951"></circle><circle r="8.510452846542387" cx="308.236263375061" cy="325.7603862567496" opacity="0.9148147614315675"></circle><circle r="4.113134647267433" cx="705.0291976734794" cy="657.478473522086" opacity="0.2463498953475565"></circle><circle r="5.33631840576885" cx="151.17454533452656" cy="662.2459634755718" opacity="0.3144322512738682"></circle><circle r="8.388689319951084" cx="166.11806470083548" cy="381.2686281473461" opacity="0.3261437357033543"></circle><circle r="5.090925420821433" cx="665.7033679782896" cy="587.2646918619556" opacity="0.19470292512717008"></circle><circle r="5.741700387150632" cx="617.4495465798316" cy="42.65887998796015" opacity="0.1989147885690451"></circle><circle r="7.132632511547479" cx="69.4841969144091" cy="437.1979143086456" opacity="0.35623867946296817"></circle><circle r="3.415738938466402" cx="404.6901685238512" cy="188.8825651057315" opacity="0.3412804997538672"></circle><circle r="3.923181910600925" cx="90.90570483862022" cy="190.74603813334315" opacity="0.9037022849795601"></circle><circle r="7.132779144650538" cx="135.769311775583" cy="701.7342256004753" opacity="0.33252073319881414"></circle><circle r="4.693249843522235" cx="465.5871724808848" cy="95.05769019918" opacity="0.7095727814780654"></circle><circle r="6.130912545882552" cx="680.4157180115674" cy="631.4876513332349" opacity="0.8668444058409175"></circle><circle r="5.874258859317687" cx="258.6068107328081" cy="183.91779094698967" opacity="0.30704592067393777"></circle><circle r="5.9144496206794415" cx="484.643663209535" cy="345.86957222990947" opacity="0.29627484861082054"></circle><circle r="6.676952773867079" cx="519.3576030889784" cy="120.62557384882045" opacity="0.11121079864662888"></circle><circle r="5.377749950596303" cx="167.6649319173103" cy="689.8583847315798" opacity="0.9489265331460607"></circle><circle r="5.321540786740493" cx="615.9415981217933" cy="337.82248186728344" opacity="0.1653532500429743"></circle><circle r="5.5623301237029725" cx="183.16909916906985" cy="755.0409992077432" opacity="0.12807387309066637"></circle><circle r="6.060189705459597" cx="401.33571377066613" cy="785.8445649663109" opacity="0.49064945088077816"></circle><circle r="4.887710839287542" cx="251.8342436093132" cy="309.48080559875825" opacity="0.4181437819247751"></circle><circle r="5.821823739231325" cx="568.5184096861061" cy="730.7897497750027" opacity="0.6626143904227878"></circle><circle r="6.724185043216544" cx="91.76058185210387" cy="39.830772301025135" opacity="0.9894585071142507"></circle><circle r="5.946328610476071" cx="392.1302590961278" cy="649.0164268911423" opacity="0.43776007801868966"></circle><circle r="7.268899800617596" cx="242.69951857532857" cy="42.83918138361541" opacity="0.7068197643503802"></circle><circle r="5.8869732230625225" cx="303.23928549703686" cy="132.93347830667685" opacity="0.6072137511292783"></circle><circle r="5.795590478649761" cx="168.58082693787117" cy="253.81974151113863" opacity="0.9069153443071603"></circle><circle r="4.996758878718599" cx="303.0780964251898" cy="747.3161947109262" opacity="0.7103459100127565"></circle><circle r="3.6006414108052573" cx="483.8914971802115" cy="518.1220296731717" opacity="0.1906355166149446"></circle><circle r="4.302082193546769" cx="55.88434566373311" cy="61.75454113019596" opacity="0.2823746161184264"></circle><circle r="3.652676055432891" cx="648.7969362834182" cy="646.464692564548" opacity="0.33679299136339624"></circle><circle r="3.974499298194992" cx="445.24737258213287" cy="193.63703666090086" opacity="0.2736191461457367"></circle><circle r="10.315731615656398" cx="179.08538676662516" cy="425.8964022858963" opacity="0.8895336638788106"></circle><circle r="7.364572812259008" cx="257.320193496822" cy="592.5172041195526" opacity="0.4617768308435857"></circle><circle r="4.784338641868212" cx="645.2365750565995" cy="145.646717348695" opacity="0.11768282582984714"></circle><circle r="4.411360177975688" cx="362.8909267674334" cy="254.32905254396135" opacity="0.9640538305337295"></circle><circle r="4.259509071732294" cx="80.86730776339493" cy="643.4442139915616" opacity="0.18494585602171054"></circle><circle r="3.8711540150166766" cx="737.373738272414" cy="327.8038506059205" opacity="0.960828189885989"></circle><circle r="4.799840590746803" cx="162.20045745974713" cy="637.5733641515068" opacity="0.2466858611979859"></circle><circle r="4.245666658032408" cx="331.36922034641043" cy="129.3901669507761" opacity="0.17860163054762612"></circle><circle r="5.025679698564076" cx="378.43448050079417" cy="754.4046997232805" opacity="0.9653721753096856"></circle><circle r="6.683100477652911" cx="485.5250124464367" cy="242.31181963751848" opacity="0.43338206356348397"></circle><circle r="6.393262038093502" cx="658.276148834172" cy="733.7754532583242" opacity="0.2652650372676813"></circle><circle r="5.961693305039738" cx="697.9667255900255" cy="554.6933303923014" opacity="0.887500190206864"></circle><circle r="4.59012393644592" cx="81.20521563258723" cy="510.6983530111199" opacity="0.3255492033931383"></circle><circle r="2.9347432077759286" cx="640.5844399725593" cy="694.7707135436375" opacity="0.22577472868778037"></circle><circle r="4.953808206654487" cx="732.6340855766643" cy="287.49583887396085" opacity="0.37286379925202673"></circle><circle r="3.2406926597563475" cx="376.43721722280884" cy="47.54288080429746" opacity="0.14270254532859003"></circle><circle r="6.245175667560219" cx="560.1988394564497" cy="520.0083034286605" opacity="0.24080662674535855"></circle><circle r="5.53360328505234" cx="284.9874965722835" cy="483.8807224618879" opacity="0.17864952479919632"></circle><circle r="3.5538264429911566" cx="769.2424908593196" cy="586.4928252545158" opacity="0.12193858129995208"></circle><circle r="4.648112169321383" cx="777.0224348875139" cy="9.324792997699449" opacity="0.5852219511041211"></circle><circle r="5.770818346439129" cx="416.99412007158486" cy="490.70678188186724" opacity="0.22712780836938046"></circle><circle r="5.353983037578297" cx="36.14569652290575" cy="397.96802421694906" opacity="0.40924831112832083"></circle><circle r="4.061086435941096" cx="715.7286175388252" cy="318.00743530732353" opacity="0.28956768648415393"></circle><circle r="3.3946858420811954" cx="549.7419812821083" cy="383.78458981384017" opacity="0.7388646926650201"></circle><circle r="4.0766139010999956" cx="319.0936784919242" cy="169.99833994905853" opacity="0.6915074882591377"></circle><circle r="5.9379390726639505" cx="218.57073485471037" cy="544.7112631450067" opacity="0.6487247136002635"></circle><circle r="5.150421984590231" cx="788.8065978271811" cy="61.982790772147375" opacity="0.44661195469306236"></circle><circle r="5.193000492337206" cx="151.13245856341618" cy="284.60157081684434" opacity="0.20892689358575317"></circle><circle r="5.974246498891175" cx="760.59639102429" cy="299.44563607057546" opacity="0.19731998023582153"></circle><circle r="6.9519346777163475" cx="663.3966799392683" cy="107.42845825316644" opacity="0.4117908620826116"></circle><circle r="6.717925448085948" cx="731.5192688341818" cy="593.8039622984356" opacity="0.7834953415378292"></circle><circle r="5.039820194222112" cx="589.0816427496184" cy="690.3813744270919" opacity="0.7083738157886897"></circle><circle r="6.129861457551851" cx="290.454093993637" cy="173.21461932015333" opacity="0.7514891673671292"></circle><circle r="6.1105230114410105" cx="752.9230879101324" cy="450.1596115592802" opacity="0.3663372618126681"></circle><circle r="5.575987610519757" cx="138.59320708004958" cy="87.64511249787867" opacity="0.8644464470835203"></circle><circle r="4.6609097771742345" cx="745.8634755026411" cy="778.447333308545" opacity="0.17272552402180064"></circle><circle r="5.715955509835467" cx="140.3379636913844" cy="734.3261977467856" opacity="0.8806920421836851"></circle><circle r="4.151186230267528" cx="502.4069500003852" cy="405.752992087517" opacity="0.3780295442294921"></circle><circle r="6.362477125790001" cx="609.4413534116142" cy="117.69464557542793" opacity="0.13700778484234002"></circle><circle r="5.048122794665403" cx="635.6814427248746" cy="499.10885550895387" opacity="0.6073607924366573"></circle><circle r="3.587763104512778" cx="454.7613074013933" cy="218.6844107728883" opacity="0.40006223738680136"></circle><circle r="3.9343676876443165" cx="207.51919961205192" cy="87.40503622832598" opacity="0.42234978258717737"></circle><circle r="7.110294240781876" cx="527.3669604449136" cy="348.14910441138073" opacity="0.49586433540571306"></circle><circle r="3.9220134647357687" cx="132.08193746976244" cy="647.4174457807087" opacity="0.5623518326221816"></circle><circle r="6.2916412910665365" cx="552.3519580079117" cy="481.1840761765262" opacity="0.5960687519447845"></circle><circle r="5.906709228746303" cx="540.0306918705858" cy="198.84164188623393" opacity="0.5106631179128649"></circle><circle r="6.274427984573778" cx="305.9440040475737" cy="656.625945860714" opacity="0.49651143958592947"></circle><circle r="5.077873483056011" cx="354.575739208375" cy="588.7180068289636" opacity="0.7913615443842029"></circle><circle r="6.130178757424337" cx="501.53175113570086" cy="571.5940911583937" opacity="0.468121792500646"></circle><circle r="9.196318523045544" cx="93.61788812004065" cy="404.0393158703495" opacity="0.6807522338170138"></circle><circle r="7.570621540070091" cx="601.1085447508298" cy="15.825814441417391" opacity="0.53221983392028"></circle><circle r="4.138226229565332" cx="454.00663602941194" cy="743.9498527145479" opacity="0.5273693162611427"></circle><circle r="8.03955372970475" cx="359.1786876571594" cy="782.1643013565493" opacity="0.2678522920841446"></circle><circle r="4.071660918453037" cx="666.4414231864782" cy="347.0065456223888" opacity="0.7649126244417634"></circle><circle r="7.570244815797869" cx="438.49645259930776" cy="121.55097308050924" opacity="0.7900419849024849"></circle><circle r="5.787328231161785" cx="235.11786603347545" cy="214.4403125115742" opacity="0.4200640321938117"></circle><circle r="6.075314941310581" cx="763.3530031485594" cy="61.77794732549598" opacity="0.8084304882312451"></circle><circle r="6.36308574730411" cx="594.8332242081807" cy="472.7213611951201" opacity="0.6779309809346843"></circle><circle r="5.988902853960429" cx="496.3601220040167" cy="782.6216867347474" opacity="0.37293918888611377"></circle><circle r="5.264953937077485" cx="655.4354144851843" cy="303.41779575575947" opacity="0.3684643873397979"></circle><circle r="6.3509858816333455" cx="222.99131152194968" cy="400.80413448329733" opacity="0.2030657808202149"></circle><circle r="6.022020249101192" cx="18.59434015361253" cy="98.47743833022278" opacity="0.8837597837395089"></circle><circle r="4.700166092160799" cx="346.267803960166" cy="617.78875141149" opacity="0.7203988942193786"></circle><circle r="4.59515522393327" cx="45.30488740159323" cy="13.832771490371409" opacity="0.17459079052118906"></circle><circle r="2.3043681534266884" cx="433.102268150718" cy="791.6365306497424" opacity="0.3570732861218281"></circle><circle r="6.6359648790373775" cx="281.90358859952374" cy="359.4429537213982" opacity="0.14212728777451009"></circle><circle r="6.114181281339742" cx="533.2601540330533" cy="74.7937674967902" opacity="0.3947461928881977"></circle><circle r="5.189544737873003" cx="789.3942995149428" cy="500.79983006681687" opacity="0.5889416462017353"></circle><circle r="5.267589255622833" cx="520.1142333858" cy="626.0334918578811" opacity="0.4737969001410717"></circle><circle r="4.7286597664740695" cx="129.31790487228082" cy="453.6131952996728" opacity="0.5975292255937579"></circle><circle r="4.288391849467578" cx="746.0502036711263" cy="22.780516149146266" opacity="0.10537471129124722"></circle><circle r="6.082732250915064" cx="612.7312134112938" cy="254.3128770939241" opacity="0.9936917324263388"></circle><circle r="5.125531775381641" cx="535.6862964600608" cy="300.52259205330233" opacity="0.5371520197909474"></circle><circle r="7.566894505179491" cx="55.03960699384194" cy="485.5375816854118" opacity="0.2336431858861402"></circle><circle r="5.074334338169599" cx="327.36122365839253" cy="631.3029408547231" opacity="0.17925270883799618"></circle><circle r="5.551116333396689" cx="18.641985435984218" cy="243.44620355834996" opacity="0.880866903089983"></circle><circle r="4.754981914783147" cx="352.1639517418882" cy="34.87150597819156" opacity="0.24699407505324475"></circle><circle r="7.254315056069261" cx="294.3778224986341" cy="557.7637936737308" opacity="0.17359450079234312"></circle><circle r="3.732559544919909" cx="751.6939094190209" cy="360.90468006415614" opacity="0.6069008546093404"></circle><circle r="3.905993890177053" cx="673.9187889960209" cy="399.2172501327991" opacity="0.26074252525138414"></circle><circle r="6.154086865092247" cx="529.7175414846688" cy="656.5888702873448" opacity="0.6059951681064449"></circle><circle r="6.231468797429996" cx="407.1324637611493" cy="744.625871536235" opacity="0.8229354089826103"></circle><circle r="5.558432237741798" cx="733.0219094101456" cy="215.53468305547003" opacity="0.9235784402720346"></circle><circle r="6.535763616778761" cx="377.9289536184069" cy="559.392234059283" opacity="0.5229123298722498"></circle><circle r="4.937225370990583" cx="81.87868661091709" cy="472.43518878640555" opacity="0.7691987311592177"></circle><circle r="6.789035338870921" cx="221.84935398173158" cy="163.81935281920312" opacity="0.36713449479253524"></circle><circle r="6.511989664046195" cx="190.3596987399822" cy="721.9679610547556" opacity="0.9988405871175741"></circle><circle r="8.679511518122968" cx="420.87543693856736" cy="673.941917151399" opacity="0.8454647841944052"></circle><circle r="2.9069925985123954" cx="669.4100563485689" cy="371.17677788063895" opacity="0.20901709003914404"></circle><circle r="4.991823559880623" cx="712.0260768274651" cy="30.49984552625377" opacity="0.3662397507241347"></circle><circle r="5.129480378879887" cx="757.055394555494" cy="250.71036936534136" opacity="0.5368472691716485"></circle><circle r="4.718207975454414" cx="761.0532369131358" cy="182.5186568040159" opacity="0.47671077965698094"></circle><circle r="5.180499413174143" cx="406.27231943017784" cy="407.68906602675986" opacity="0.6255555006246861"></circle><circle r="8.866574619549539" cx="19.41105588461088" cy="662.7571204291728" opacity="0.485451388517389"></circle><circle r="4.173529659935207" cx="379.4457007117248" cy="609.394113734375" opacity="0.9939645244996961"></circle><circle r="3.3434079646780765" cx="25.740578347881087" cy="421.484421144964" opacity="0.2399959193833732"></circle><circle r="3.950841928315489" cx="774.9673585668963" cy="667.6087889701499" opacity="0.8522484338795597"></circle><circle r="3.9511307937941806" cx="462.64149247375417" cy="174.47149862428498" opacity="0.20450337076941555"></circle><circle r="4.67228082252942" cx="667.7950391895745" cy="160.62897028895713" opacity="0.2087382686758342"></circle><circle r="4.462258930580759" cx="275.5693233604663" cy="394.60035865187314" opacity="0.90449952295396"></circle><circle r="6.667145510968384" cx="141.9345585032793" cy="217.80593115712813" opacity="0.20431321673386804"></circle><circle r="5.246689495575196" cx="786.9723186372969" cy="567.0294331226678" opacity="0.27421233869126227"></circle><circle r="2.3556297987529615" cx="486.0562311286916" cy="196.23412307800015" opacity="0.29265921892802627"></circle><circle r="5.055837226030531" cx="694.8811275634" cy="374.19516266828805" opacity="0.40235232005544774"></circle><circle r="3.9463515917942935" cx="154.73169411412775" cy="761.367129552758" opacity="0.7715180635356825"></circle><circle r="7.8156311502653075" cx="687.6378555105006" cy="187.29590582106644" opacity="0.4602842702131381"></circle><circle r="4.2205904887638" cx="448.4061986409385" cy="483.07806874483936" opacity="0.23594890004802557"></circle><circle r="5.820459826686289" cx="640.4126007216878" cy="279.1557984649132" opacity="0.5937899168841454"></circle><circle r="4.438529415614019" cx="75.68713981412306" cy="744.2014986955893" opacity="0.939035713690587"></circle><circle r="8.237063096324125" cx="222.99730857159628" cy="437.9089247671897" opacity="0.7822878563634261"></circle><circle r="3.8764708762189146" cx="784.1873659225444" cy="738.0967988302799" opacity="0.9713799430640353"></circle><circle r="6.888703634017806" cx="209.00322090291994" cy="29.903447304595716" opacity="0.49273279046600527"></circle><circle r="9.41846224766915" cx="511.0045387252623" cy="26.627566692161952" opacity="0.9516779473708855"></circle><circle r="8.462663836867947" cx="17.841951150382506" cy="361.3979626578824" opacity="0.3730021091815179"></circle><circle r="4.3595528507176295" cx="779.7954862363744" cy="417.1966271499101" opacity="0.8047867630595081"></circle><circle r="6.3962929036653104" cx="384.40333341614763" cy="304.6719776449094" opacity="0.3356011826901218"></circle><circle r="7.418918087576682" cx="61.55846368780901" cy="538.7491309847074" opacity="0.9433830067387894"></circle><circle r="5.865371125698244" cx="567.2112813615414" cy="650.0181842860591" opacity="0.9886837372545528"></circle><circle r="6.587902903904221" cx="420.9184389247354" cy="361.1810322519944" opacity="0.9650400349346692"></circle><circle r="8.874518552218415" cx="320.5322059577091" cy="45.719493009862376" opacity="0.4348456004941018"></circle><circle r="2.884444294937915" cx="793.163308419577" cy="662.3359303712463" opacity="0.3173675290540898"></circle><circle r="3.671344345908276" cx="677.3511086027694" cy="463.9502868834449" opacity="0.5161789123689293"></circle><circle r="3.8194648818439374" cx="510.72490445656763" cy="486.23941850906573" opacity="0.4424507653381776"></circle><circle r="5.759671705716601" cx="629.6210752803039" cy="94.05239139079987" opacity="0.325636362848843"></circle><circle r="5.6027752618754985" cx="578.0005979967909" cy="450.5797129901912" opacity="0.1495520887845087"></circle><circle r="5.077295843527236" cx="105.81696488891284" cy="172.99352244830314" opacity="0.6308731979562717"></circle><circle r="5.235459209689181" cx="291.21641104400186" cy="205.60067793879915" opacity="0.12348462594256199"></circle><circle r="3.3418093007443397" cx="742.3328505424921" cy="418.64972800469104" opacity="0.6749062602555715"></circle><circle r="7.537990370319578" cx="477.14113741546856" cy="633.913531611784" opacity="0.13684683319505733"></circle><circle r="5.703338972361609" cx="175.62584621321602" cy="22.63098541524617" opacity="0.15069857557200594"></circle><circle r="5.056995368092693" cx="83.2718657872302" cy="68.64390328760811" opacity="0.9497758489059054"></circle><circle r="4.864652384012108" cx="206.70226000718787" cy="764.8535858091385" opacity="0.35814749244409116"></circle><circle r="6.8647468627891435" cx="442.633944375466" cy="33.06701255831573" opacity="0.8904141245072811"></circle><circle r="3.8706037265276017" cx="444.94989478017146" cy="79.95422899105594" opacity="0.1631049836097316"></circle><circle r="5.638282621356069" cx="177.1360460171663" cy="788.0063030780519" opacity="0.40309984613940475"></circle><circle r="4.023446806650843" cx="531.6611031152047" cy="791.1672039480471" opacity="0.7078413364095022"></circle><circle r="5.691152263341116" cx="693.0267519111009" cy="586.6299701018271" opacity="0.8920288548594391"></circle><circle r="5.938156011417654" cx="583.155905814595" cy="47.67792525740427" opacity="0.9626855320896469"></circle><circle r="4.436203173202081" cx="208.16538698846725" cy="257.6472391182271" opacity="0.6753346646271836"></circle><circle r="5.7539910245192045" cx="156.72361770763055" cy="560.2720882955041" opacity="0.19707137682386727"></circle><circle r="4.528059270287888" cx="593.6289707356124" cy="646.7701339263925" opacity="0.8777681003955099"></circle><circle r="8.170679352559088" cx="622.488616774475" cy="185.688350015056" opacity="0.13690368366798625"></circle><circle r="2.663917673107043" cx="722.5520265275819" cy="8.050148870600651" opacity="0.8256017696999493"></circle><circle r="5.028707296772486" cx="615.4858252817306" cy="718.1269629581707" opacity="0.7647249207060817"></circle><circle r="8.323050185831294" cx="289.04724741149977" cy="293.0983928847353" opacity="0.3567249519946626"></circle><circle r="4.823595934894388" cx="355.4745442331991" cy="517.0081184565734" opacity="0.48686727882713177"></circle><circle r="4.268513554829563" cx="784.1468881238526" cy="445.58384786575397" opacity="0.8591792031087384"></circle><circle r="3.9404202463854805" cx="223.35618459799923" cy="599.0815429161022" opacity="0.1406527711530981"></circle><circle r="2.9746997273044418" cx="366.67654508830645" cy="632.2153763769624" opacity="0.425528551735299"></circle><circle r="6.085933081569676" cx="714.9374275670331" cy="255.0183057777186" opacity="0.6480323164686826"></circle><circle r="5.563641950728492" cx="545.713044188892" cy="439.7414713002618" opacity="0.5049456897544558"></circle><circle r="4.837116523080088" cx="707.8274639647506" cy="347.7569329091057" opacity="0.9716974410216677"></circle><circle r="7.968271438229603" cx="54.43927475957777" cy="345.8030983529604" opacity="0.8543809635166358"></circle><circle r="5.387210746293764" cx="430.66317366585895" cy="441.36740766506045" opacity="0.7273252086272343"></circle><circle r="4.356288875165594" cx="789.9423864509976" cy="685.027804557789" opacity="0.6779337008550446"></circle><circle r="5.53872506088407" cx="523.9532909062929" cy="696.7262766222289" opacity="0.18742917789490265"></circle><circle r="5.719844409999457" cx="43.8982501577665" cy="437.22764572907" opacity="0.6771977785577777"></circle><circle r="3.870353902470768" cx="121.03333133556809" cy="108.30757862772253" opacity="0.22706931015513596"></circle><circle r="9.1543708804149" cx="212.59833657109598" cy="357.7003557447008" opacity="0.42878265807385174"></circle><circle r="6.94181704545389" cx="691.679367224342" cy="222.42719594711596" opacity="0.22086188805218587"></circle><circle r="2.9031030076260653" cx="712.7621941880226" cy="395.56460282507936" opacity="0.8659373875479129"></circle><circle r="3.9044876043432715" cx="676.7629666490772" cy="429.8254519628569" opacity="0.33793157672558544"></circle><circle r="7.821171086281228" cx="442.8235534752083" cy="243.38957424019353" opacity="0.48514804849895843"></circle><circle r="5.463992273018272" cx="368.9752612462102" cy="118.40953686625713" opacity="0.19041057640471926"></circle><circle r="6.721262714857904" cx="557.1240244815598" cy="170.4466380527757" opacity="0.9652639021554718"></circle><circle r="3.5869552040771295" cx="767.6692856904199" cy="489.8556711550267" opacity="0.10120522914479832"></circle><circle r="5.212203115295663" cx="706.3352322159234" cy="746.6588566830399" opacity="0.5640017167187467"></circle><circle r="7.758523171882384" cx="76.38815238349966" cy="611.5742675526611" opacity="0.37208800769852823"></circle><circle r="6.364357753950269" cx="275.0649079103735" cy="527.266701068559" opacity="0.9966241306717722"></circle><circle r="3.082066048932885" cx="608.6606835360388" cy="610.2483936639497" opacity="0.8047919858887551"></circle><circle r="5.785390634881596" cx="661.1780305653306" cy="703.9533458270321" opacity="0.37341674828791205"></circle><circle r="3.41470286909184" cx="188.90912837845906" cy="624.4757994708526" opacity="0.6149165304270497"></circle><circle r="3.4204858239424993" cx="761.3592269198452" cy="648.7393884356935" opacity="0.9831335333299328"></circle><circle r="6.048050635325096" cx="57.144492347001865" cy="787.2504300856486" opacity="0.1399125995501702"></circle><circle r="5.284575157877783" cx="530.6775640628127" cy="581.2280763932224" opacity="0.5323277908784181"></circle><circle r="5.803694067711039" cx="276.36659572777756" cy="787.7475602482233" opacity="0.8420573357181185"></circle><circle r="7.778248982669167" cx="581.1182144900663" cy="544.4662076977695" opacity="0.9341508160176275"></circle><circle r="5.465564869100783" cx="641.8019779811074" cy="549.659531112822" opacity="0.7682634051534266"></circle><circle r="5.036350915847808" cx="710.7108703608508" cy="780.5202326075478" opacity="0.657152335397195"></circle><circle r="6.111398002763118" cx="660.7354233214807" cy="763.2354458881382" opacity="0.645802657038933"></circle><circle r="3.8022856228916804" cx="115.57954138847691" cy="477.1867248474504" opacity="0.5439103406015504"></circle><circle r="4.3859288662602" cx="505.22477872089803" cy="206.56536576420956" opacity="0.8075973609052393"></circle><circle r="6.369926393074696" cx="568.2650314205943" cy="370.0626894596364" opacity="0.9068745014658383"></circle><circle r="7.298114538188498" cx="440.5222851407699" cy="522.2509296522944" opacity="0.6527160526606853"></circle><circle r="6.882425392771141" cx="55.02769685998379" cy="691.9332233801721" opacity="0.9715884039799002"></circle><circle r="6.376382034874531" cx="286.7965576235626" cy="57.65713520294522" opacity="0.5617330511543833"></circle><circle r="5.208285671932142" cx="676.792117633988" cy="527.4364022311238" opacity="0.24084085128806412"></circle><circle r="6.388933769011319" cx="307.8432646443458" cy="456.8974026184619" opacity="0.14590968473350963"></circle><circle r="2.8900056241084435" cx="265.30338844986426" cy="767.4116058194655" opacity="0.8511592793554351"></circle><circle r="5.260538552562583" cx="786.4966456869048" cy="530.8504274860953" opacity="0.6037324334128972"></circle><circle r="1.7300872810473715" cx="465.2850224732599" cy="190.5691170391078" opacity="0.6140820833419541"></circle><circle r="6.872865430615242" cx="198.34240821960694" cy="676.6149322296372" opacity="0.6185958379873503"></circle><circle r="7.942766945201773" cx="341.7321060813826" cy="205.8646256082553" opacity="0.9384486959524577"></circle><circle r="5.7161437904311665" cx="605.5507228712779" cy="496.4292683105942" opacity="0.2829942313724013"></circle><circle r="4.225700870030753" cx="148.80499131345854" cy="491.0859658504963" opacity="0.5473685560168566"></circle><circle r="4.397639197559879" cx="623.4413334163336" cy="592.4308739915773" opacity="0.11770753118673451"></circle><circle r="6.6936984942610795" cx="57.58918361038145" cy="199.1259965355278" opacity="0.8501711705931658"></circle><circle r="4.086601657382135" cx="496.3495915362693" cy="659.4711310589238" opacity="0.8927722993252006"></circle><circle r="4.604687918438038" cx="63.69729034046322" cy="30.307088108412366" opacity="0.890361573036082"></circle><circle r="6.540962144036862" cx="201.1794210406578" cy="474.91210097803247" opacity="0.29950630959254865"></circle><circle r="4.961801332884617" cx="96.75365710791932" cy="671.804415140167" opacity="0.6809475164560465"></circle><circle r="7.548406210182318" cx="294.8467150894779" cy="96.55042837822326" opacity="0.7871191207067916"></circle><circle r="6.409870803438784" cx="21.852677763701003" cy="475.8093855677297" opacity="0.36644844876422633"></circle><circle r="3.983893886993541" cx="345.6531951419795" cy="172.91742491792112" opacity="0.46843635087591085"></circle><circle r="5.652942385783971" cx="448.1769508858809" cy="362.4583903424912" opacity="0.9233228911253317"></circle><circle r="4.898011033358293" cx="779.697733529326" cy="31.272043453429404" opacity="0.4061946665808833"></circle><circle r="5.267336530916128" cx="483.75399523076715" cy="714.4452412820276" opacity="0.9897371613401028"></circle><circle r="2.7132576084984623" cx="117.95309339588965" cy="251.7037038768606" opacity="0.9160059862888598"></circle><circle r="4.068150138048448" cx="16.506377627771737" cy="40.00626778947891" opacity="0.8321585546257807"></circle><circle r="9.391307103507014" cx="318.296026855486" cy="702.115499269359" opacity="0.5576190677129792"></circle><circle r="3.5795865191030782" cx="376.37533576634945" cy="12.312213023319508" opacity="0.860336552254681"></circle><circle r="5.564163245300788" cx="611.4604282909107" cy="563.215063056245" opacity="0.49989045753847183"></circle><circle r="6.061423368300053" cx="769.0284861359287" cy="699.2682575021007" opacity="0.6496501037596208"></circle><circle r="5.507766756954627" cx="514.6316045304541" cy="732.6103089229033" opacity="0.20910396163024425"></circle><circle r="5.113453852833146" cx="219.03435192744" cy="112.14790070194093" opacity="0.1264154913742644"></circle><circle r="9.844745616088085" cx="458.7725797153965" cy="276.86923885286217" opacity="0.3220741521987206"></circle><circle r="5.37217507879457" cx="128.3620567765038" cy="347.1297524858075" opacity="0.9679874457315796"></circle><circle r="5.521887887999983" cx="484.96667326875155" cy="604.3368628452357" opacity="0.6632656683397556"></circle><circle r="7.959494797323252" cx="558.9841947478376" cy="325.8803929768584" opacity="0.6806865065183234"></circle><circle r="6.753902171645745" cx="365.33501176715936" cy="705.6260934893477" opacity="0.5755090334844887"></circle><circle r="4.533592514733738" cx="549.0836506434662" cy="34.41360874743407" opacity="0.999026126667979"></circle><circle r="7.129927550131054" cx="585.4611158572656" cy="347.08159710613046" opacity="0.41911790028924834"></circle><circle r="6.816894329246675" cx="418.3518921531212" cy="62.95823099963513" opacity="0.22987418219599054"></circle><circle r="7.277454201818597" cx="301.1121145211618" cy="620.2114319459079" opacity="0.20306926820231525"></circle><circle r="7.1773660614224175" cx="597.8320156756067" cy="304.4465544890097" opacity="0.7051965672932343"></circle><circle r="2.9266748446353374" cx="190.50062933094065" cy="602.410116553811" opacity="0.2720938009087912"></circle><circle r="6.311974768121588" cx="750.4881752296226" cy="562.5438758326146" opacity="0.7802136314934897"></circle><circle r="3.7011353870662034" cx="437.3888117390936" cy="773.2414894023325" opacity="0.4878363238467053"></circle><circle r="7.033188718784114" cx="535.8526973941554" cy="231.16572581381823" opacity="0.7948605857584022"></circle><circle r="5.5192742250781475" cx="332.45879758345006" cy="668.829630712965" opacity="0.6634966212998527"></circle><circle r="8.851838256120045" cx="641.1046113957931" cy="218.36318081102206" opacity="0.42869210952744874"></circle><circle r="6.930048242497075" cx="91.85854020738225" cy="781.5520750393924" opacity="0.6814398534809262"></circle><circle r="5.709818795711346" cx="758.483214581588" cy="393.88145152363705" opacity="0.45079941849035765"></circle><circle r="4.806825406358717" cx="39.75805360978084" cy="219.91907632252318" opacity="0.3612872349232704"></circle><circle r="5.417773373310653" cx="689.2421763786776" cy="684.7276983867157" opacity="0.7090251439631442"></circle><circle r="5.71599752894059" cx="56.222558502207995" cy="657.2096762186711" opacity="0.6219445090705144"></circle><circle r="5.472412653150538" cx="759.4043390929294" cy="529.9955196596367" opacity="0.2595271139327587"></circle><circle r="5.055537226919542" cx="298.63831821496643" cy="257.5984106439686" opacity="0.6172737291024988"></circle><circle r="4.558097344547585" cx="616.8436720932918" cy="658.3935519836027" opacity="0.5857099728251495"></circle><circle r="5.007128289093428" cx="113.43282847871141" cy="143.34654717824105" opacity="0.1980203474492343"></circle><circle r="3.6233547642826305" cx="81.21016145574212" cy="273.463720363907" opacity="0.9329305787889616"></circle><circle r="6.27342409411342" cx="475.95912036204885" cy="570.8167331494601" opacity="0.5539187405228944"></circle><circle r="7.939157642258707" cx="16.120110966569346" cy="147.99639782229852" opacity="0.6156023697559591"></circle><circle r="3.6783995833476375" cx="791.1523391425384" cy="614.8227046767324" opacity="0.4276602096923786"></circle><circle r="4.648812519997581" cx="243.42343107550633" cy="129.33275286314526" opacity="0.2978354160021425"></circle><circle r="3.8243267707741366" cx="632.6625106698345" cy="460.1576529575786" opacity="0.14897082786126992"></circle><circle r="8.358040589117726" cx="23.155002125127925" cy="566.8921015259965" opacity="0.33544760542900365"></circle><circle r="3.5303975499360054" cx="10.537439016048145" cy="394.8041774775005" opacity="0.4761685320150426"></circle><circle r="7.03562188591028" cx="634.4978189262777" cy="372.4027705395812" opacity="0.579507152129186"></circle><circle r="5.169971238362485" cx="307.9022451252092" cy="514.2470378197951" opacity="0.2764385199346605"></circle><circle r="3.22191727744347" cx="619.9845416253596" cy="631.966629066499" opacity="0.8450708803901888"></circle><circle r="4.036548746013174" cx="348.4436855617924" cy="455.1732386777202" opacity="0.5086124364234892"></circle><circle r="3.553184771257644" cx="225.57486391232348" cy="789.3029127913724" opacity="0.6267372706006293"></circle><circle r="5.657137522087355" cx="610.6073393422894" cy="68.24283356394554" opacity="0.4013462905272446"></circle><circle r="7.969755635496181" cx="407.2674111420701" cy="594.7581352071957" opacity="0.6162403273725421"></circle><circle r="4.41071757231041" cx="223.83553890965464" cy="625.8052028271192" opacity="0.42356733476885067"></circle><circle r="5.6240166176736235" cx="783.230005046718" cy="788.5941759156422" opacity="0.3828808184412842"></circle><circle r="5.548994947195122" cx="519.4552516702298" cy="263.61867314848126" opacity="0.4995762786256661"></circle><circle r="4.9357693609090365" cx="222.8531871432351" cy="658.7717053111483" opacity="0.12776328458998185"></circle><circle r="3.52941737204743" cx="212.47016095766233" cy="60.609255970435925" opacity="0.5496416285369395"></circle><circle r="6.836362087051549" cx="446.7737456516219" cy="572.3212624051723" opacity="0.7773847797626371"></circle><circle r="4.088752572569742" cx="756.5400798264263" cy="679.8616634483175" opacity="0.14333028912187393"></circle><circle r="4.480008375935515" cx="684.8986208737135" cy="52.83936982940578" opacity="0.9628926219317405"></circle><circle r="4.4246513467711495" cx="140.26249973953603" cy="312.6869109114374" opacity="0.8681519015990539"></circle><circle r="4.597060941929423" cx="784.9397930540352" cy="642.6324006249286" opacity="0.12908544350596296"></circle><circle r="8.736974280923699" cx="457.2703629974138" cy="320.0945400890123" opacity="0.6583200225645162"></circle><circle r="5.9160250460076735" cx="701.1256928355713" cy="447.5198342610297" opacity="0.38505898103724956"></circle><circle r="6.975077048660424" cx="181.82251530533557" cy="297.42509389231907" opacity="0.2810345215746336"></circle><circle r="6.535814193140721" cx="108.68829237378718" cy="754.6714542356476" opacity="0.4255949884884175"></circle><circle r="8.323558587775313" cx="411.2513370289011" cy="21.19255468813488" opacity="0.9224063241768545"></circle><circle r="5.082854979500126" cx="154.03576420789886" cy="129.59830831251827" opacity="0.1464260336028358"></circle><circle r="6.625034647613419" cx="580.3434458209791" cy="611.7078817374661" opacity="0.5955276902927603"></circle><circle r="4.263014016995681" cx="104.55497978472083" cy="702.1410206451386" opacity="0.14643100794822328"></circle><circle r="4.8578516011569235" cx="39.74066799939613" cy="742.0003643196571" opacity="0.3245631644447382"></circle><circle r="5.688276911178009" cx="273.5084638188308" cy="20.693767009326997" opacity="0.5998625550439696"></circle><circle r="4.684092784560447" cx="320.2830600631842" cy="590.2601303485179" opacity="0.8344303042879377"></circle><circle r="5.9658783579047725" cx="49.70310986297821" cy="263.78433075910783" opacity="0.6244071791692816"></circle><circle r="6.526579658295695" cx="108.63309625668956" cy="528.5469035644797" opacity="0.1871616342620943"></circle><circle r="5.88663105244524" cx="716.6264364062318" cy="471.63745198889137" opacity="0.4532758909569411"></circle><circle r="6.401678703952204" cx="10.886809380789362" cy="742.1785043662583" opacity="0.5773625603404816"></circle><circle r="6.000929132913077" cx="451.7524713002306" cy="607.2927492030451" opacity="0.4796097666686341"></circle><circle r="6.1122957130481765" cx="725.7876811793514" cy="440.16759575930973" opacity="0.13593039446089017"></circle><circle r="5.363204584674439" cx="652.6340420702958" cy="65.76568004803416" opacity="0.34895717139566285"></circle><circle r="4.707186982479976" cx="13.987316905029976" cy="197.06127537230822" opacity="0.4575735664324675"></circle><circle r="4.774926389147436" cx="248.45209009643784" cy="654.2855516701188" opacity="0.4124680565247183"></circle><circle r="9.88949125810414" cx="339.2732820746677" cy="738.9849537768198" opacity="0.5962871200367098"></circle><circle r="7.380790195962627" cx="398.45096099893897" cy="709.2442691043948" opacity="0.6080455994463464"></circle><circle r="6.463454188364517" cx="338.5237897035522" cy="83.98321498471094" opacity="0.6828413805501502"></circle><circle r="5.05779832181832" cx="597.1696153381388" cy="94.63181596804405" opacity="0.758458463471055"></circle><circle r="4.726985427924285" cx="123.02301853238968" cy="671.9773539662793" opacity="0.8327920268524254"></circle><circle r="4.01247832652014" cx="251.3858543837455" cy="262.7255759636559" opacity="0.5685368555883238"></circle><circle r="3.9849820407125933" cx="524.514482076244" cy="510.0349482938113" opacity="0.11041608694004428"></circle><circle r="7.934057346852132" cx="465.49155822140006" cy="451.04049050686615" opacity="0.7501242970835088"></circle><circle r="7.26012357951114" cx="277.0950656708044" cy="667.0531520618043" opacity="0.4969114685383481"></circle><circle r="9.811169447836862" cx="29.08058314119272" cy="615.2728752392926" opacity="0.1929018337034698"></circle><circle r="5.439635304601143" cx="581.1885420120132" cy="132.1482051812683" opacity="0.3130417360881297"></circle><circle r="5.939067906616051" cx="526.053027095412" cy="174.64186644869844" opacity="0.7519470100459605"></circle><circle r="7.310078067055535" cx="510.7799297050002" cy="379.071700854252" opacity="0.6068850141865529"></circle><circle r="6.934667627838412" cx="749.378696549285" cy="109.83378208560585" opacity="0.6386373577454117"></circle><circle r="3.9289987408201137" cx="7.375582982063325" cy="421.9895584611507" opacity="0.37439731617856853"></circle><circle r="5.251810031248775" cx="225.57359293252026" cy="749.808881236335" opacity="0.755581487983693"></circle><circle r="7.629058261085493" cx="18.903645349093136" cy="779.5952436931784" opacity="0.2126739619755244"></circle><circle r="3.8195574973105213" cx="330.9165210588882" cy="563.0609551577268" opacity="0.18436148971995395"></circle><circle r="8.697324672587719" cx="174.39315663395303" cy="338.7874569519315" opacity="0.6427179143311883"></circle><circle r="6.010180323741425" cx="175.04062105621117" cy="84.08794484600867" opacity="0.2889971496882091"></circle><circle r="4.454587189009011" cx="354.7314678213066" cy="651.126854082325" opacity="0.42256207790950084"></circle><circle r="6.189572513817183" cx="444.01970190386567" cy="155.0672854790203" opacity="0.4432977735611636"></circle><circle r="3.5653441229073684" cx="787.6463960500347" cy="313.1066625459313" opacity="0.6097173594677618"></circle><circle r="7.428842532508769" cx="376.0134358566187" cy="180.00346232112656" opacity="0.6081368581411212"></circle></g></svg>